<svg xmlns="http://www.w3.org/2000/svg" viewBox="0 0 24 24" width="24px" height="24px">
    <path fill="#191919" d="M12 2C6.486 2 2 5.589 2 9.995C2 12.024 3.033 13.842 4.705 15.26C4.102 17.502 2.37 19.625 2.228 19.718C2.172 19.752 2.13 19.81 2.103 19.88C2.076 19.95 2.065 20.029 2.071 20.107C2.078 20.185 2.103 20.259 2.144 20.323C2.185 20.387 2.24 20.44 2.304 20.477C2.368 20.514 2.439 20.533 2.511 20.533C2.622 20.533 2.73 20.504 2.827 20.447C2.977 20.36 5.556 18.78 6.949 17.56C8.188 18.102 9.563 18.423 11.021 18.423C11.351 18.423 11.677 18.402 12 18.361C17.514 18.361 22 14.772 22 10.366C22 5.96 17.514 2 12 2Z"/>
</svg>